<?xml version="1.0" encoding="utf-8"?>
<svg version="1.1" id="Layer_1"
	 xmlns="http://www.w3.org/2000/svg" xmlns:xlink="http://www.w3.org/1999/xlink" x="0px" y="0px" viewBox="0 0 499.5 98.7"
	 enable-background="new 0 0 499.5 98.7" xml:space="preserve">
<metadata>
	<sfw>
		<slices></slices>
		<sliceSourceBounds  height="213.1" width="641.8" y="-212.1" x="-14.3" bottomLeftOrigin="true"></sliceSourceBounds>
	</sfw>
</metadata>
<rect x="-74.1" y="-56.6" fill="none" width="641.8" height="213.1"/>
<g>
	<path fill="#1E1E1C" d="M129.5,39.7l-5.8,0l-0.1-12l-11.8,0.1l0.1,12l-5.8,0L106,10.9l5.8,0l0.1,12.4l11.8-0.1l-0.1-12.4l5.8,0
		L129.5,39.7z"/>
	<path fill="#1E1E1C" d="M146.9,39.6c-0.2-0.4-0.3-0.9-0.5-1.5c-0.1-0.5-0.2-1.1-0.3-1.7c-0.6,1-1.4,1.9-2.3,2.6c-1,0.7-2.1,1-3.5,1
		c-2.2,0-4-0.6-5.2-1.7s-1.8-2.7-1.9-4.7c0-2.1,0.8-3.7,2.4-4.9c1.6-1.2,4-1.8,7.1-1.8l3.3,0l0-1.7c0-1-0.3-1.8-0.8-2.4
		s-1.4-0.8-2.4-0.8c-0.9,0-1.7,0.2-2.2,0.7c-0.5,0.5-0.8,1.1-0.8,1.9l-5.6,0l0-0.1c-0.1-1.8,0.7-3.4,2.3-4.7c1.7-1.3,3.8-2,6.5-2
		c2.6,0,4.7,0.6,6.3,1.9c1.6,1.3,2.4,3.1,2.4,5.6l0.1,8.9c0,1,0.1,1.9,0.2,2.8c0.2,0.9,0.4,1.8,0.7,2.6L146.9,39.6z M141.7,35.7
		c1,0,1.9-0.3,2.7-0.8c0.8-0.5,1.3-1.1,1.6-1.8l0-3l-3.3,0c-1.2,0-2.2,0.3-2.8,0.9c-0.6,0.6-0.9,1.4-0.9,2.2c0,0.7,0.2,1.3,0.7,1.7
		C140.3,35.5,140.9,35.7,141.7,35.7z"/>
	<path fill="#1E1E1C" d="M156.4,18.1l5.8,0l0.1,17l7.1,0l-0.1-17l5.8,0l0.1,17l3.1,0l0,8.4l-5.8,0l0-4l-16,0.1L156.4,18.1z"/>
	<path fill="#1E1E1C" d="M187.3,12.8l-5.8,0l0-4.3l5.8,0L187.3,12.8z M187.4,39.3l-5.8,0l-0.1-21.4l5.8,0L187.4,39.3z"/>
	<path fill="#1E1E1C" d="M191.3,28.4c0-3.2,0.9-5.8,2.6-7.9c1.8-2.1,4.2-3.1,7.4-3.1c3.2,0,5.7,1,7.5,3c1.8,2,2.7,4.6,2.7,7.9l0,0.4
		c0,3.2-0.9,5.9-2.6,7.9c-1.8,2-4.2,3.1-7.4,3.1c-3.2,0-5.7-1-7.5-3c-1.8-2-2.7-4.6-2.7-7.9L191.3,28.4z M197.1,28.8
		c0,2,0.4,3.5,1.1,4.7c0.7,1.2,1.8,1.8,3.3,1.8c1.5,0,2.6-0.6,3.3-1.8c0.7-1.2,1-2.8,1-4.7l0-0.4c0-1.9-0.4-3.5-1.1-4.7
		c-0.7-1.2-1.8-1.8-3.3-1.8c-1.5,0-2.6,0.6-3.3,1.8c-0.7,1.2-1,2.8-1,4.7L197.1,28.8z"/>
	<path fill="#1E1E1C" d="M233.2,39.1l-5.8,0l0-8.3l-7.1,0l0,8.3l-5.8,0l-0.1-21.4l5.8,0l0,8.7l7.1,0l0-8.7l5.8,0L233.2,39.1z"/>
	<path fill="#1E1E1C" d="M249.6,39c-0.2-0.4-0.3-0.9-0.5-1.5c-0.1-0.5-0.2-1.1-0.3-1.7c-0.6,1-1.3,1.9-2.3,2.6c-1,0.7-2.1,1-3.5,1
		c-2.2,0-4-0.6-5.2-1.7s-1.8-2.7-1.9-4.7c0-2.1,0.8-3.7,2.4-4.9c1.6-1.2,4-1.8,7.1-1.8l3.2,0l0-1.7c0-1-0.3-1.8-0.8-2.4
		s-1.4-0.8-2.4-0.8c-0.9,0-1.7,0.2-2.2,0.7c-0.5,0.5-0.8,1.1-0.8,1.9l-5.6,0l0-0.1c-0.1-1.8,0.7-3.4,2.3-4.7c1.7-1.3,3.8-2,6.5-2
		c2.6,0,4.7,0.6,6.3,1.9c1.6,1.3,2.4,3.1,2.4,5.6l0.1,8.9c0,1,0.1,1.9,0.2,2.8c0.2,0.9,0.4,1.8,0.7,2.6L249.6,39z M244.4,35.1
		c1,0,1.9-0.3,2.7-0.8c0.8-0.5,1.3-1.1,1.6-1.8l0-3l-3.2,0c-1.2,0-2.2,0.3-2.8,0.9c-0.6,0.6-0.9,1.4-0.9,2.2c0,0.7,0.2,1.3,0.7,1.7
		C242.9,34.9,243.6,35.1,244.4,35.1z"/>
	<path fill="#1E1E1C" d="M277.1,17.4l0.1,21.4l-5.8,0l-0.1-17l-4.3,0l0,4.7c0,4.2-0.7,7.3-2,9.3c-1.4,2-3.7,3-6.8,3.1l-0.9,0
		l-0.1-4.6l0.6,0c1.3,0,2.3-0.6,2.8-1.7c0.5-1.1,0.7-3.1,0.7-6l-0.1-9.1L277.1,17.4z"/>
	<path fill="#1E1E1C" d="M287.5,24.3l4,0c2.9,0,5.2,0.6,6.8,2c1.7,1.3,2.5,3.1,2.5,5.2c0,2.2-0.8,3.9-2.4,5.3
		c-1.6,1.4-3.9,2-6.8,2.1l-9.8,0.1l-0.1-21.4l5.8,0L287.5,24.3z M287.5,28.7l0,5.6l4,0c1.2,0,2.1-0.3,2.6-0.8c0.6-0.5,0.9-1.2,0.9-2
		c0-0.8-0.3-1.5-0.9-2c-0.6-0.5-1.5-0.8-2.6-0.8L287.5,28.7z"/>
	<path fill="#1E1E1C" d="M322.6,38.6l-5.8,0l0-8.3l-7.1,0l0,8.3l-5.8,0l-0.1-21.4l5.8,0l0,8.7l7.1,0l0-8.7l5.8,0L322.6,38.6z"/>
	<path fill="#1E1E1C" d="M339.9,38.5c-0.2-0.4-0.3-0.9-0.5-1.5c-0.1-0.5-0.2-1.1-0.3-1.7c-0.6,1-1.4,1.9-2.3,2.6c-1,0.7-2.1,1-3.5,1
		c-2.2,0-4-0.6-5.2-1.7c-1.2-1.1-1.8-2.7-1.9-4.7c0-2.1,0.8-3.7,2.4-4.9c1.6-1.2,4-1.8,7.1-1.8l3.3,0l0-1.7c0-1-0.3-1.8-0.8-2.4
		c-0.5-0.6-1.4-0.8-2.4-0.8c-0.9,0-1.7,0.2-2.2,0.7c-0.5,0.5-0.8,1.1-0.8,1.9l-5.6,0l0-0.1c-0.1-1.8,0.7-3.4,2.3-4.7
		c1.7-1.3,3.8-2,6.5-2c2.6,0,4.7,0.6,6.3,1.9c1.6,1.3,2.4,3.1,2.4,5.6l0.1,8.9c0,1,0.1,1.9,0.2,2.8s0.4,1.8,0.7,2.6L339.9,38.5z
		 M334.7,34.6c1,0,1.9-0.3,2.7-0.8s1.3-1.1,1.6-1.8l0-3l-3.3,0c-1.2,0-2.2,0.3-2.8,0.9c-0.6,0.6-0.9,1.4-0.9,2.2
		c0,0.7,0.2,1.3,0.7,1.7C333.2,34.4,333.8,34.6,334.7,34.6z"/>
	<path fill="#1E1E1C" d="M368.2,34.3c1,0,1.8-0.3,2.4-0.9c0.6-0.6,0.9-1.4,0.9-2.4l5.3,0l0,0.1c0.1,2.2-0.7,4-2.4,5.5
		c-1.7,1.5-3.7,2.2-6.2,2.2c-3.2,0-5.6-1-7.4-3c-1.7-2-2.6-4.6-2.6-7.8l0-0.6c0-3.1,0.8-5.7,2.5-7.8c1.7-2.1,4.1-3.1,7.3-3.1
		c2.6,0,4.7,0.7,6.3,2.2c1.6,1.5,2.4,3.5,2.4,5.9l0,0.1l-5.3,0c0-1.1-0.3-2-0.9-2.8c-0.6-0.7-1.4-1.1-2.5-1.1
		c-1.5,0-2.5,0.6-3.2,1.8c-0.6,1.2-0.9,2.7-0.9,4.6l0,0.6c0,1.9,0.3,3.4,1,4.6S366.7,34.3,368.2,34.3z"/>
	<path fill="#1E1E1C" d="M399.1,16.7l0.1,21.4l-5.8,0l-0.1-17l-4.3,0l0,4.7c0,4.2-0.7,7.3-2,9.3c-1.4,2-3.7,3-6.8,3.1l-0.9,0
		l-0.1-4.6l0.6,0c1.3,0,2.3-0.6,2.8-1.7c0.5-1.1,0.7-3.1,0.7-6l-0.1-9.1L399.1,16.7z"/>
	<path fill="#1E1E1C" d="M412.3,29.1l0.2,1.2l0.1,0l4-13.7l6.2,0l-8.6,24.7c-0.6,1.5-1.4,2.8-2.5,3.9c-1,1.1-2.6,1.6-4.7,1.6
		c-0.5,0-0.9,0-1.4-0.1c-0.4-0.1-0.9-0.2-1.5-0.3l0.7-4.2c0.2,0,0.4,0.1,0.6,0.1c0.2,0,0.4,0,0.5,0c1,0,1.7-0.2,2.2-0.7
		c0.5-0.5,0.9-1.1,1.2-1.8l0.7-1.7l-7.7-21.4l6.2,0L412.3,29.1z"/>
	<path fill="#1E1E1C" d="M443.6,29.8l-1.6,0l0,8.1l-5.7,0l0-8.1l-1.6,0l-4.2,8.1l-7.4,0l7-11.7l-6.7-9.8l7.3,0l4.5,8.1l1.1,0l0-8.1
		l5.7,0l0,8.1l1.2,0l4.4-8.1l7.3,0l-6.6,9.9l7.1,11.6l-7.4,0L443.6,29.8z"/>
	<path fill="#1E1E1C" d="M467.4,15.9c3.1,0,5.5,1,7.2,3c1.7,2,2.6,4.6,2.7,7.9l0,0.4c0,3.2-0.9,5.9-2.6,7.9c-1.8,2-4.2,3.1-7.4,3.1
		c-3.2,0-5.7-1-7.5-3c-1.8-2-2.7-4.6-2.7-7.9l0-0.4c0-0.1,0-0.1,0-0.2c0-0.1,0-0.1,0-0.2l0-3.3c0-4.5,0.8-7.8,2.4-10.1
		c1.6-2.2,4.1-3.5,7.5-3.9c1.5-0.1,2.6-0.4,3.3-0.7c0.7-0.3,1-0.9,1-1.7l4.5,0l0,0.1c0.1,2.5-0.5,4.2-1.8,5
		c-1.3,0.9-3.4,1.5-6.5,1.9c-1.6,0.2-2.9,0.7-4,1.5c-1,0.8-1.6,1.7-1.7,2.9l0.1,0.1c0.6-0.7,1.5-1.3,2.4-1.8
		C465.3,16.1,466.3,15.9,467.4,15.9z M467.2,20.4c-1.5,0-2.6,0.6-3.3,1.8c-0.7,1.2-1,2.8-1,4.7l0,0.4c0,2,0.4,3.5,1.1,4.7
		c0.7,1.2,1.8,1.8,3.3,1.8c1.5,0,2.6-0.6,3.3-1.8c0.7-1.2,1-2.8,1-4.7l0-0.4c0-1.9-0.4-3.5-1.1-4.7
		C469.8,20.9,468.7,20.4,467.2,20.4z"/>
	<path fill="#1E1E1C" d="M493.6,37.6c-0.2-0.4-0.3-0.9-0.5-1.5c-0.1-0.5-0.2-1.1-0.3-1.7c-0.6,1-1.3,1.9-2.3,2.6s-2.1,1-3.5,1
		c-2.2,0-4-0.6-5.2-1.7s-1.8-2.7-1.9-4.7c0-2.1,0.8-3.7,2.4-4.9c1.6-1.2,4-1.8,7.1-1.8l3.2,0l0-1.7c0-1-0.3-1.8-0.8-2.4
		c-0.5-0.6-1.4-0.8-2.4-0.8c-0.9,0-1.7,0.2-2.2,0.7c-0.5,0.5-0.8,1.1-0.8,1.9l-5.6,0l0-0.1c-0.1-1.8,0.7-3.4,2.3-4.7
		c1.7-1.3,3.8-2,6.5-2c2.6,0,4.7,0.6,6.3,1.9c1.6,1.3,2.4,3.1,2.4,5.6l0.1,8.9c0,1,0.1,1.9,0.2,2.8c0.2,0.9,0.4,1.8,0.7,2.6
		L493.6,37.6z M488.4,33.8c1,0,1.9-0.3,2.7-0.8c0.8-0.5,1.3-1.1,1.6-1.8l0-3l-3.2,0c-1.2,0-2.2,0.3-2.8,0.9s-0.9,1.4-0.9,2.2
		c0,0.7,0.2,1.3,0.7,1.7C486.9,33.6,487.6,33.8,488.4,33.8z"/>
	<path fill="#1E1E1C" d="M114.9,69.7c1.1,0,2-0.2,2.6-0.6c0.6-0.4,0.9-1,0.9-1.7c0-0.7-0.3-1.3-0.9-1.7c-0.6-0.5-1.4-0.7-2.6-0.7
		c-1.1,0-1.9,0.2-2.6,0.6c-0.6,0.4-1,1-1,1.7l-5.6,0l0-0.1c-0.1-1.9,0.7-3.5,2.4-4.7c1.7-1.2,3.8-1.8,6.4-1.8c2.9,0,5.2,0.5,6.9,1.6
		c1.7,1.1,2.6,2.6,2.6,4.6c0,1-0.3,1.8-0.9,2.6c-0.6,0.8-1.5,1.4-2.6,1.9c1.3,0.4,2.3,1.1,3,1.9c0.7,0.8,1,1.9,1,3
		c0,2-0.9,3.6-2.7,4.7c-1.8,1.2-4.2,1.8-7.1,1.8c-2.5,0-4.7-0.5-6.6-1.7c-1.8-1.1-2.7-2.8-2.6-4.9l0-0.1l5.6,0c0,0.7,0.3,1.3,1,1.8
		c0.7,0.5,1.6,0.7,2.9,0.7c1.2,0,2.1-0.3,2.8-0.8c0.7-0.5,1-1.2,1-1.9c0-0.9-0.3-1.6-1-2c-0.7-0.4-1.6-0.6-2.9-0.6l-3.5,0l0-3.7
		L114.9,69.7z"/>
	<path fill="#1E1E1C" d="M127.4,77.9L127.4,77.9l0.6,0c1.3,0,2.2-0.6,2.6-1.8c0.5-1.2,0.9-3.3,1.2-6.4l0.9-8.8l14.6-0.1l0.1,17l3,0
		l0,7.7l-5.8,0l0-3.3l-12.7,0.1l0,3.3l-5.8,0l0-7.7L127.4,77.9z M137.6,69.7c-0.2,1.8-0.4,3.4-0.7,4.7c-0.3,1.4-0.7,2.5-1.1,3.5
		l5.9,0l-0.1-12.4l-3.5,0L137.6,69.7z"/>
	<path fill="#1E1E1C" d="M152.6,71.3c0-3.2,0.9-5.8,2.6-7.9c1.8-2.1,4.2-3.1,7.4-3.1c3.2,0,5.7,1,7.5,3c1.8,2,2.7,4.6,2.7,7.9l0,0.4
		c0,3.2-0.9,5.9-2.6,7.9c-1.8,2-4.2,3.1-7.4,3.1c-3.2,0-5.7-1-7.5-3c-1.8-2-2.7-4.6-2.7-7.9L152.6,71.3z M158.4,71.7
		c0,2,0.4,3.5,1.1,4.7c0.7,1.2,1.8,1.8,3.3,1.8c1.5,0,2.6-0.6,3.3-1.8c0.7-1.2,1-2.8,1-4.7l0-0.4c0-1.9-0.4-3.5-1.1-4.7
		c-0.7-1.2-1.8-1.8-3.3-1.8c-1.5,0-2.6,0.6-3.3,1.8c-0.7,1.2-1,2.8-1,4.7L158.4,71.7z"/>
	<path fill="#1E1E1C" d="M195.9,71.9c0,3.2-0.7,5.7-2.2,7.7c-1.5,1.9-3.5,2.9-6.1,2.9c-1.1,0-2.1-0.2-3-0.6c-0.9-0.4-1.6-1-2.2-1.8
		l0.1,10.3l-5.8,0l-0.2-29.7l5.2,0l0.4,2.5c0.6-0.9,1.4-1.7,2.3-2.2c0.9-0.5,1.9-0.8,3.1-0.8c2.7,0,4.7,1,6.2,3.1
		c1.5,2.1,2.2,4.8,2.2,8.2L195.9,71.9z M190.1,71.5c0-2-0.4-3.7-1-4.9c-0.7-1.3-1.7-1.9-3.1-1.9c-0.9,0-1.6,0.2-2.2,0.5
		c-0.6,0.4-1.1,0.9-1.4,1.5l0.1,9.4c0.4,0.6,0.8,1.1,1.5,1.4c0.6,0.3,1.4,0.5,2.3,0.5c1.4,0,2.4-0.6,3.1-1.7c0.6-1.1,1-2.6,1-4.5
		L190.1,71.5z"/>
	<path fill="#1E1E1C" d="M198.8,71.1c0-3.2,0.9-5.8,2.6-7.9c1.8-2.1,4.2-3.1,7.4-3.1c3.2,0,5.7,1,7.5,3c1.8,2,2.7,4.6,2.7,7.9l0,0.4
		c0,3.2-0.9,5.9-2.6,7.9c-1.8,2-4.2,3.1-7.4,3.1c-3.2,0-5.7-1-7.5-3c-1.8-2-2.7-4.6-2.7-7.9L198.8,71.1z M204.6,71.4
		c0,2,0.4,3.5,1.1,4.7c0.7,1.2,1.8,1.8,3.3,1.8c1.5,0,2.6-0.6,3.3-1.8c0.7-1.2,1-2.8,1-4.7l0-0.4c0-1.9-0.4-3.5-1.1-4.7
		c-0.7-1.2-1.8-1.8-3.3-1.8c-1.5,0-2.6,0.6-3.3,1.8c-0.7,1.2-1,2.8-1,4.7L204.6,71.4z"/>
	<path fill="#1E1E1C" d="M223.1,81.8L223,60.4l9-0.1c2.9,0,5.1,0.5,6.7,1.5c1.6,1,2.4,2.5,2.4,4.5c0,1-0.3,1.9-1,2.7
		c-0.7,0.8-1.6,1.4-2.8,1.8c1.6,0.3,2.9,0.9,3.7,1.8c0.8,0.9,1.3,1.9,1.3,3.1c0,2-0.7,3.6-2.2,4.6c-1.5,1-3.7,1.6-6.5,1.6
		L223.1,81.8z M228.8,69.1l3.3,0c1.1,0,1.9-0.2,2.4-0.5c0.5-0.3,0.8-0.9,0.8-1.6c0-0.8-0.3-1.3-0.8-1.7c-0.5-0.4-1.4-0.5-2.5-0.5
		l-3.2,0L228.8,69.1z M228.8,72.9l0,4.5l4.6,0c1,0,1.8-0.2,2.3-0.6c0.5-0.4,0.7-0.9,0.7-1.7c0-0.7-0.2-1.3-0.7-1.7
		c-0.5-0.4-1.2-0.6-2.3-0.6L228.8,72.9z"/>
	<path fill="#1E1E1C" d="M249.1,58.7l-2,5l-2.9,0l-0.1-10.8l4.9,0L249.1,58.7z"/>
	<path fill="#1E1E1C" d="M268.5,60.1l0.1,21.4l-5.7,0l0-7.5l-3.2,0l-4.2,7.5l-5.8,0l4.7-8.4c-1.4-0.5-2.5-1.3-3.3-2.4
		c-0.8-1-1.2-2.2-1.2-3.6c0-2.1,0.8-3.8,2.5-5.1c1.7-1.3,3.9-2,6.7-2L268.5,60.1z M255.6,67.5c0,0.7,0.3,1.4,0.9,1.9
		c0.6,0.5,1.4,0.8,2.5,0.8l3.8,0l0-5.6l-3.8,0c-1.1,0-1.9,0.3-2.5,0.9C255.9,66.1,255.6,66.7,255.6,67.5z"/>
	<path fill="#1E1E1C" d="M293.9,65.4l0.5,1.7l0.1,0l6-14.6l6.1,0L296.3,76c-0.8,1.9-1.8,3.3-3,4.4c-1.2,1-2.8,1.6-4.9,1.6
		c-0.8,0-1.5-0.1-2.1-0.2s-1.3-0.3-2.1-0.6l0.6-4.1c0.6,0.2,1.1,0.3,1.6,0.4c0.5,0.1,0.9,0.1,1.4,0.1c1.1,0,1.9-0.2,2.5-0.7
		c0.6-0.5,1-1.2,1.4-2.1l0.4-1.1l-10.3-20.9l6.2,0L293.9,65.4z"/>
	<path fill="#1E1E1C" d="M314.5,73.3l-2.2,0l0,8l-5.8,0l-0.1-21.4l5.8,0l0,8.2l1.7,0l4.9-8.2l7.3,0l-7,10l7.5,11.5l-7.4,0
		L314.5,73.3z"/>
	<path fill="#1E1E1C" d="M348.9,71c0,3.2-0.7,5.7-2.2,7.7c-1.5,1.9-3.5,2.9-6.1,2.9c-1.1,0-2.1-0.2-3-0.6c-0.9-0.4-1.6-1-2.2-1.8
		l0.1,10.3l-5.8,0l-0.2-29.7l5.2,0l0.4,2.5c0.6-0.9,1.4-1.7,2.3-2.2c0.9-0.5,1.9-0.8,3.1-0.8c2.7,0,4.7,1,6.2,3.1
		c1.5,2.1,2.2,4.8,2.2,8.2L348.9,71z M343.1,70.6c0-2-0.4-3.7-1-4.9c-0.7-1.3-1.7-1.9-3.1-1.9c-0.9,0-1.6,0.2-2.2,0.5
		c-0.6,0.4-1.1,0.9-1.4,1.5l0.1,9.4c0.4,0.6,0.8,1.1,1.5,1.4c0.6,0.3,1.4,0.5,2.3,0.5c1.4,0,2.4-0.6,3.1-1.7c0.6-1.1,1-2.6,1-4.5
		L343.1,70.6z"/>
	<path fill="#1E1E1C" d="M365.2,81c-0.2-0.4-0.3-0.9-0.5-1.5c-0.1-0.5-0.2-1.1-0.3-1.7c-0.6,1-1.3,1.9-2.3,2.6c-1,0.7-2.1,1-3.5,1
		c-2.2,0-4-0.6-5.2-1.7c-1.2-1.1-1.8-2.7-1.8-4.7c0-2.1,0.8-3.7,2.4-4.9c1.6-1.2,4-1.8,7.1-1.8l3.3,0l0-1.7c0-1-0.3-1.8-0.8-2.4
		c-0.5-0.6-1.4-0.8-2.4-0.8c-0.9,0-1.7,0.2-2.2,0.7c-0.5,0.5-0.8,1.1-0.8,1.9l-5.6,0l0-0.1c-0.1-1.8,0.7-3.4,2.3-4.7
		c1.7-1.3,3.8-2,6.5-2c2.6,0,4.7,0.6,6.3,1.9c1.6,1.3,2.4,3.1,2.4,5.6l0,8.9c0,1,0.1,1.9,0.2,2.8c0.2,0.9,0.4,1.8,0.7,2.6L365.2,81z
		 M360,77.2c1,0,1.9-0.3,2.7-0.8s1.3-1.1,1.6-1.8l0-3l-3.3,0c-1.2,0-2.2,0.3-2.8,0.9c-0.6,0.6-0.9,1.4-0.9,2.2
		c0,0.7,0.2,1.3,0.7,1.7C358.5,77,359.2,77.2,360,77.2z"/>
	<path fill="#1E1E1C" d="M375.4,56l-5.6,0l0-4l5.6,0L375.4,56z M380.8,80.9l-5.8,0l-0.1-21.4l5.8,0L380.8,80.9z M385.7,56l-5.6,0
		l0-4l5.6,0L385.7,56z"/>
	<path fill="#1E1E1C" d="M404.4,80.8l-5.8,0l0-8.3l-7.1,0l0,8.3l-5.8,0l-0.1-21.4l5.8,0l0,8.7l7.1,0l0-8.7l5.8,0L404.4,80.8z"/>
	<path fill="#1E1E1C" d="M421.9,59.3l5.8,0l0.1,21.4l-5.8,0l-0.1-13.1l-0.1,0l-6.9,13.1l-5.8,0L409,59.3l5.8,0l0.1,13l0.1,0
		L421.9,59.3z"/>
</g>
<path fill-rule="evenodd" clip-rule="evenodd" fill="#216EB6" d="M81,11.5c-0.1-1.6-1.1-3.1-2.6-3.7C73.1,5.4,59.3,0,40.8,0
	C21.5,0,8.3,5.3,3.2,7.7c-1.4,0.7-2.4,2.1-2.5,3.7c-0.7,9-2.4,39.9,5.7,55.9c8.2,16.1,27.5,27.8,33,30.9c0.9,0.5,2,0.5,2.9,0
	c5.5-3.1,24.8-14.8,33-30.9C83.4,51.4,81.7,20.6,81,11.5z"/>
<path fill-rule="evenodd" clip-rule="evenodd" fill="#FFFFFF" d="M48.7,35V19.9c0-0.4-0.3-0.7-0.7-0.7H33.6c-0.4,0-0.7,0.3-0.7,0.7
	V35H17.8c-0.4,0-0.7,0.3-0.7,0.7v14.4c0,0.4,0.3,0.7,0.7,0.7h15.1V66c0,0.4,0.3,0.7,0.7,0.7h14.4c0.4,0,0.7-0.3,0.7-0.7V50.8h15.1
	c0.4,0,0.7-0.3,0.7-0.7V35.7c0-0.4-0.3-0.7-0.7-0.7H48.7z"/>
</svg>
