<?xml version="1.0" standalone="no"?>
<!DOCTYPE svg PUBLIC "-//W3C//DTD SVG 20010904//EN"
 "http://www.w3.org/TR/2001/REC-SVG-20010904/DTD/svg10.dtd">
<svg version="1.0" xmlns="http://www.w3.org/2000/svg"
 width="660.000000pt" height="660.000000pt" viewBox="0 0 660.000000 660.000000"
 preserveAspectRatio="xMidYMid meet">
<metadata>
Created by potrace 1.11, written by Peter Selinger 2001-2013
</metadata>
<g transform="translate(0.000000,660.000000) scale(0.100000,-0.100000)"
fill="#000000" stroke="none">
<path d="M4728 6585 c-2 -2 -30 -6 -63 -9 -189 -17 -429 -77 -650 -163 -79
-31 -354 -162 -410 -196 -11 -7 -47 -27 -80 -46 -59 -34 -278 -176 -302 -196
-7 -5 -19 -16 -27 -22 -8 -7 -17 -13 -20 -13 -9 0 -277 -208 -330 -255 -6 -5
-58 -50 -116 -100 -163 -141 -458 -438 -600 -605 -30 -36 -57 -67 -60 -70 -3
-3 -21 -25 -40 -50 -19 -25 -37 -47 -40 -50 -16 -13 -177 -229 -253 -340 -48
-69 -90 -129 -95 -135 -50 -66 -242 -396 -335 -578 -82 -160 -207 -428 -207
-442 0 -3 -8 -24 -19 -48 -74 -168 -201 -545 -241 -717 -6 -25 -12 -52 -14
-60 -9 -32 -28 -116 -32 -140 -3 -14 -11 -56 -19 -95 -7 -38 -17 -90 -20 -115
-4 -25 -9 -54 -11 -65 -2 -11 -6 -42 -9 -70 -3 -27 -8 -75 -12 -105 -9 -64 -9
-455 0 -520 3 -25 9 -65 11 -90 12 -97 30 -183 71 -340 26 -101 147 -377 175
-400 3 -3 16 -21 28 -40 11 -20 30 -47 42 -59 11 -13 20 -27 20 -30 0 -7 135
-145 173 -177 123 -102 334 -198 487 -221 19 -2 53 -9 74 -13 42 -9 420 -6
446 3 8 3 40 8 70 12 81 9 227 40 348 76 59 17 115 32 124 34 10 2 32 10 50
18 110 47 184 77 191 77 5 0 22 9 38 21 16 11 29 18 29 15 0 -3 27 11 61 30
33 18 63 34 65 34 3 0 54 29 114 65 144 86 270 177 440 315 161 130 378 344
555 545 33 38 65 73 70 79 44 46 78 108 78 145 0 55 -44 141 -85 167 -40 25
-91 43 -112 40 -14 -2 -87 -59 -136 -106 -9 -8 -37 -32 -63 -53 -25 -21 -52
-43 -59 -50 -7 -7 -36 -30 -63 -52 -28 -22 -62 -51 -77 -64 -73 -64 -256 -201
-370 -277 -190 -127 -419 -238 -531 -258 -7 -1 -21 -5 -32 -9 -11 -3 -37 -8
-57 -11 -21 -2 -42 -7 -48 -11 -5 -3 -70 -8 -144 -11 -99 -3 -155 0 -212 11
-268 55 -479 260 -565 549 -22 74 -23 78 -37 167 -9 60 -8 399 2 514 3 39 8
100 11 137 4 37 8 78 11 90 2 13 7 43 9 68 6 55 11 96 18 135 3 17 8 48 12 70
5 33 28 138 50 230 3 11 7 29 9 40 10 48 77 242 88 257 7 8 33 21 58 27 51 13
56 15 127 36 29 8 77 22 105 30 29 9 60 18 69 20 9 2 63 18 120 36 57 18 109
33 114 35 19 4 182 57 370 120 105 35 197 66 205 68 8 2 33 11 55 19 22 8 49
18 60 23 11 4 25 8 30 10 15 5 136 51 170 65 17 7 32 13 35 13 24 4 187 72
192 81 4 5 8 7 8 3 0 -9 315 128 499 218 134 66 247 127 413 222 35 20 252
159 273 174 6 4 51 38 100 75 94 70 115 88 200 163 138 124 335 346 335 379 0
5 4 11 9 13 12 4 92 140 124 210 56 123 99 265 114 383 8 58 8 278 1 315 -56
271 -223 511 -454 654 -60 37 -158 84 -189 91 -5 1 -17 5 -25 8 -60 27 -202
45 -340 45 -82 0 -150 -2 -152 -3z m-28 -489 c81 -17 161 -72 204 -139 46 -74
64 -195 45 -302 -12 -65 -57 -202 -83 -253 -9 -18 -16 -34 -16 -37 1 -10 -64
-132 -108 -205 -123 -200 -280 -383 -493 -570 -40 -36 -85 -76 -100 -90 -62
-58 -89 -80 -98 -80 -5 0 -11 -4 -13 -9 -1 -5 -39 -37 -83 -70 -44 -33 -87
-66 -95 -73 -30 -26 -121 -88 -130 -88 -4 0 -10 -4 -12 -9 -6 -16 -292 -182
-432 -250 -173 -84 -253 -121 -261 -121 -3 0 -25 -9 -48 -19 -100 -46 -517
-194 -517 -185 0 4 -6 1 -14 -5 -8 -7 -23 -14 -35 -16 -43 -10 -57 -14 -98
-29 -23 -8 -44 -12 -47 -8 -2 4 6 27 18 52 12 25 28 61 36 80 24 60 176 371
228 465 99 180 133 239 201 345 102 161 125 195 154 233 16 20 26 37 22 37 -3
0 0 6 7 14 23 24 48 56 48 61 0 5 54 77 79 106 6 8 41 52 77 99 159 204 332
391 565 612 15 14 205 168 249 201 8 7 28 18 43 26 15 8 27 18 27 23 0 4 4 8
10 8 5 0 33 15 62 34 201 128 450 194 608 162z"/>
</g>
</svg>
